# xmcd
#
# Track frame offsets:
#	150
#	15983
#	33082
#	49403
#	67174
#	85623
#	98083
#	114879
#	128726
#	147064
#	168254
#	183988
#	199969
#	218673
#	237543
#	251155
#	266502
#	282481
#	302958
#
# Disc length: 4279 seconds
#
# Revision: 1
# Processed by: cddbd v1.5.1PL2 Copyright (c) Steve Scherf et al.
# Submitted via: dBpowerAMP V4.0
#
DISCID=0d10b513
DTITLE=los temerarios - the mix
DYEAR=1900
DGENRE=blues
TTITLE0=#1
TTITLE1=#2
TTITLE2=#3
TTITLE3=#4
TTITLE4=#5
TTITLE5=#6
TTITLE6=#7
TTITLE7=#8
TTITLE8=#9
TTITLE9=#10
TTITLE10=#11
TTITLE11=#12
TTITLE12=#13
TTITLE13=#14
TTITLE14=#15
TTITLE15=#16
TTITLE16=#17
TTITLE17=#18
TTITLE18=#19
EXTD=the mix
EXTT0=
EXTT1=
EXTT2=
EXTT3=
EXTT4=
EXTT5=
EXTT6=
EXTT7=
EXTT8=
EXTT9=
EXTT10=
EXTT11=
EXTT12=
EXTT13=
EXTT14=
EXTT15=
EXTT16=
EXTT17=
EXTT18=
PLAYORDER=
